<?xml version="1.0" standalone="no"?>
<!DOCTYPE svg PUBLIC "-//W3C//DTD SVG 20010904//EN"
 "http://www.w3.org/TR/2001/REC-SVG-20010904/DTD/svg10.dtd">
<svg version="1.0" xmlns="http://www.w3.org/2000/svg"
 width="600.000000pt" height="600.000000pt" viewBox="0 0 600.000000 600.000000"
 preserveAspectRatio="xMidYMid meet">
<metadata>
Created by potrace 1.14, written by Peter Selinger 2001-2017
</metadata>
<g transform="translate(0.000000,600.000000) scale(0.100000,-0.100000)"
fill="#000000" stroke="none">
<path d="M2690 5989 c-477 -49 -965 -227 -1371 -500 -295 -198 -610 -513 -808
-808 -278 -413 -452 -896 -501 -1390 -13 -133 -13 -449 0 -582 49 -494 223
-977 501 -1390 198 -295 513 -610 808 -808 413 -278 896 -452 1390 -501 133
-13 449 -13 582 0 494 49 977 223 1390 501 295 198 610 513 808 808 278 413
452 896 501 1390 13 133 13 449 0 582 -49 494 -223 977 -501 1390 -198 295
-513 610 -808 808 -413 278 -896 452 -1390 501 -121 12 -479 11 -601 -1z
m1800 -1769 l55 -7 -80 -2 c-219 -3 -440 -82 -628 -225 -178 -133 -325 -363
-330 -514 -2 -43 2 -56 17 -68 50 -36 157 1 241 84 62 61 92 107 116 179 l20
58 -6 -48 c-11 -102 -121 -249 -223 -298 -55 -27 -128 -35 -162 -17 -114 61
-13 365 186 560 223 218 533 334 794 298z m-938 -81 c35 -13 29 -14 -90 -14
-114 0 -135 -3 -202 -28 -224 -82 -353 -310 -306 -537 32 -153 118 -282 277
-415 346 -289 465 -491 438 -742 -26 -245 -208 -469 -449 -554 -55 -20 -85
-23 -195 -23 -116 0 -139 3 -210 28 -120 42 -194 87 -266 163 -275 292 -154
740 225 832 96 23 204 -23 222 -95 23 -91 -26 -227 -119 -331 -54 -60 -137
-140 -137 -131 0 3 30 41 66 84 112 135 166 277 134 354 -16 40 -37 50 -100
50 -68 0 -175 -55 -230 -117 -175 -199 -106 -514 140 -638 123 -62 280 -82
396 -51 159 42 315 193 364 353 24 78 26 198 5 269 -8 27 -35 84 -60 126 -45
77 -111 149 -343 372 -112 108 -175 195 -216 299 -127 320 29 653 349 749 71
21 246 19 307 -3z m355 -401 c-3 -8 -6 -5 -6 6 -1 11 2 17 5 13 3 -3 4 -12 1
-19z m-1632 -1773 c-60 -37 -234 -103 -343 -130 -128 -32 -313 -55 -415 -53
-49 1 -64 3 -37 5 85 7 302 43 417 69 114 25 323 92 372 119 44 24 48 16 6
-10z"/>
</g>
</svg>
